<?xml version="1.0" standalone="no"?>
<!DOCTYPE svg PUBLIC "-//W3C//DTD SVG 1.1//EN" "http://www.w3.org/Graphics/SVG/1.1/DTD/svg11.dtd" >
<svg xmlns="http://www.w3.org/2000/svg" xmlns:xlink="http://www.w3.org/1999/xlink" version="1.1">
<metadata></metadata>
<defs>
<font id="sf_transroboticsregular" horiz-adv-x="1147" >
<font-face units-per-em="2048" ascent="1638" descent="-410" />
<missing-glyph horiz-adv-x="717" />
<glyph horiz-adv-x="0" />
<glyph horiz-adv-x="682" />
<glyph unicode=" "  horiz-adv-x="717" />
<glyph unicode="&#x09;" horiz-adv-x="717" />
<glyph unicode="&#xa0;" horiz-adv-x="717" />
<glyph unicode="!" horiz-adv-x="389" d="M61 0v266h267v-266h-267zM61 369v860h267v-860h-267z" />
<glyph unicode="&#x22;" horiz-adv-x="819" d="M61 758l103 471h266l-102 -471h-267zM389 758l103 471h266l-103 -471h-266z" />
<glyph unicode="#" horiz-adv-x="1356" d="M0 250l41 239h250l45 250h-250l41 240h250l45 250h240l-46 -250h250l45 250h240l-45 -250h250l-41 -240h-250l-45 -250h250l-41 -239h-250l-45 -250h-240l45 250h-250l-45 -250h-239l45 250h-250zM530 489h250l45 250h-250z" />
<glyph unicode="$" d="M61 266h656v246h-533q-49 0 -86 37t-37 86v471q0 49 37 86t86 37h256v205h267v-205h378v-266h-655v-246h533q49 0 85 -37q37 -37 37 -86v-471q0 -49 -37 -86q-36 -37 -85 -37h-256v-203h-267v203h-256z" />
<glyph unicode="%" horiz-adv-x="1511" d="M61 676v491q0 25 18.5 43.5t43.5 18.5h338q24 0 42.5 -18.5t18.5 -43.5v-491q0 -25 -18.5 -43.5t-42.5 -18.5h-338q-25 0 -43.5 18.5t-18.5 43.5zM246 748h92v348h-92v-348zM317 0l596 1229h281l-596 -1229h-281zM989 61v492q0 25 18.5 43t43.5 18h338q24 0 42.5 -18 t18.5 -43v-492q0 -24 -18.5 -42.5t-42.5 -18.5h-338q-25 0 -43.5 18.5t-18.5 42.5zM1174 133h92v348h-92v-348z" />
<glyph unicode="&#x26;" horiz-adv-x="1044" d="M61 123v389q0 45 41 74q36 27 82 28q-49 0 -86 37t-37 86v369q0 49 37 86t86 37h205v205h266v-205h328v-266h-553v-246h348v-205h-348v-246h553v-266h-328v-203h-266v203h-205q-49 0 -86 37t-37 86z" />
<glyph unicode="'" horiz-adv-x="492" d="M61 758l103 471h266l-102 -471h-267z" />
<glyph unicode="(" horiz-adv-x="594" d="M61 614q0 450 205 820h266q-204 -371 -204 -820q0 -448 204 -817h-266q-205 368 -205 817z" />
<glyph unicode=")" horiz-adv-x="594" d="M61 -203q205 368 205 817q0 447 -205 820h267q204 -374 204 -820q0 -448 -204 -817h-267z" />
<glyph unicode="*" horiz-adv-x="1073" d="M61 578l279 159l-279 160l99 172l278 -162v322h197v-322l278 162l99 -172l-279 -160l279 -159l-99 -172l-278 161v-321h-197v321l-278 -161z" />
<glyph unicode="+" horiz-adv-x="942" d="M61 481v267h277v276h266v-276h277v-267h-277v-276h-266v276h-277z" />
<glyph unicode="," horiz-adv-x="492" d="M61 -203l103 469h266l-102 -469h-267z" />
<glyph unicode="-" horiz-adv-x="942" d="M61 481v267h820v-267h-820z" />
<glyph unicode="." horiz-adv-x="389" d="M61 0v266h267v-266h-267z" />
<glyph unicode="/" horiz-adv-x="903" d="M0 -203l596 1637h307l-596 -1637h-307z" />
<glyph unicode="0" d="M61 123v983q0 49 37 86t86 37h779q49 0 85 -37q37 -37 37 -86v-983q0 -49 -37 -86q-36 -37 -85 -37h-779q-49 0 -86 37t-37 86zM430 266h287v697h-287v-697z" />
<glyph unicode="1" horiz-adv-x="635" d="M0 963l123 266h450v-1229h-368v963h-205z" />
<glyph unicode="2" d="M61 123v471q0 49 37 86t86 37h533v246h-656v266h902q49 0 85 -37q37 -37 37 -86v-471q0 -49 -37 -86q-36 -37 -85 -37h-533v-246h655v-266h-901q-49 0 -86 37t-37 86z" />
<glyph unicode="3" d="M61 0v266h656v246h-451v205h451v246h-656v266h902q49 0 85 -37q37 -37 37 -86v-369q0 -49 -37 -86q-36 -37 -85 -37q46 -2 84 -30q38 -27 38 -72v-389q0 -49 -37 -86q-36 -37 -85 -37h-902z" />
<glyph unicode="4" d="M61 307v922h369v-717h287v307h368v-819h-368v307h-656z" />
<glyph unicode="5" d="M61 0l123 266h533v246h-656v717h1024v-266h-655v-246h533q49 0 85 -37q37 -37 37 -86v-471q0 -49 -37 -86q-36 -37 -85 -37h-902z" />
<glyph unicode="6" d="M61 123v983q0 49 37 86t86 37h901l-122 -266h-533v-164h533q49 0 85 -37q37 -37 37 -86v-553q0 -49 -37 -86q-36 -37 -85 -37h-779q-49 0 -86 37t-37 86zM430 266h287v328h-287v-328z" />
<glyph unicode="7" horiz-adv-x="1106" d="M61 963v266h1024l-409 -1229h-369l322 963h-568z" />
<glyph unicode="8" d="M61 123v389q0 45 41 74q36 27 82 28q-49 0 -86 37t-37 86v369q0 49 37 86t86 37h779q49 0 85 -37q37 -37 37 -86v-369q0 -49 -37 -86q-36 -37 -85 -37q46 -2 84 -30q38 -27 38 -72v-389q0 -49 -37 -86q-36 -37 -85 -37h-779q-49 0 -86 37t-37 86zM430 266h287v246h-287 v-246zM430 717h287v246h-287v-246z" />
<glyph unicode="9" d="M61 0l123 266h533v164h-533q-49 0 -86 37t-37 86v553q0 49 37 86t86 37h779q49 0 85 -37q37 -37 37 -86v-983q0 -49 -37 -86q-36 -37 -85 -37h-902zM430 635h287v328h-287v-328z" />
<glyph unicode=":" horiz-adv-x="389" d="M61 0v266h267v-266h-267zM61 655v267h267v-267h-267z" />
<glyph unicode=";" horiz-adv-x="492" d="M61 -203l103 469h266l-102 -469h-267zM164 655v267h266v-267h-266z" />
<glyph unicode="&#x3c;" horiz-adv-x="1505" d="M61 1188h222l22 -148l254 -159l66 -283h-203l-297 190zM160 668l131 -84v-82l129 -84v-387l-201 137zM182 1063l11 -72l329 -211v62zM203 924l12 -72l330 -211v61zM365 1188q179 88 389 88q208 0 387 -88l-17 -107l-370 -237l-373 237zM489 -16v419l136 93v-299h258v299 l133 -93v-419l-55 -37l-78 188h-258l-80 -188zM582 1126l172 -116l170 116q-84 27 -172 27q-86 0 -170 -27zM618 -53l56 127h157l56 -127h-269zM637 831l117 -73l114 73q-10 -38 -19.5 -75t-19.5 -74q-22 -87 -22 -154q0 -5 0.5 -12t1.5 -16v-29v-192h-111q0 17 0.5 47 t1.5 75v123q0 68 -22 156q-11 38 -21 75.5t-20 75.5zM883 598l63 283l254 159l23 148h221l-64 -400l-295 -190h-202zM961 641l329 211l13 72l-342 -222v-61zM983 780l330 211l12 72l-342 -221v-62zM1085 31v387l129 84v82l132 84l-60 -500z" />
<glyph unicode="=" horiz-adv-x="942" d="M61 276v267h820v-267h-820zM61 686v266h820v-266h-820z" />
<glyph unicode="&#x3e;" horiz-adv-x="1546" d="M61 1290l236 -231l178 -39l35 -174l-223 37l14 -74l221 -37l17 -76l-226 37l15 -76l295 -55l149 -186l152 186l295 55l12 76l-223 -37l14 76l223 37l15 74l-224 -37l35 174l178 39l236 231l-115 -606l-598 -754l-596 754zM197 565l512 -637l-269 54q-25 4 -61 11t-84 17z M444 510l215 -270l39 149zM512 1235l190 -170h140l190 170l-98 -541l-41 -22l-64 -82h-112l-66 82l-41 22zM711 883l61 -138l64 138h-125zM838 -72l512 637l-99 -555q-13 -3 -49 -10t-96 -18zM848 389l39 -149l213 270z" />
<glyph unicode="?" horiz-adv-x="1065" d="M61 0v266h267v-266h-267zM61 369v225q0 49 37 86t86 37h553v307h-409v-102h-267v184q0 49 37 86t86 37h697q49 0 86 -37t37 -86v-471q0 -49 -37 -86t-86 -37h-553v-143h-267z" />
<glyph unicode="@" horiz-adv-x="1288" d="M61 160v907q0 27 20.5 48.5t47.5 21.5h1026q29 0 50.5 -20.5t21.5 -49.5v-643q0 -68 -72 -68h-706q-27 0 -48.5 20.5t-21.5 47.5v174q0 27 21.5 47.5t48.5 20.5h251v59h-321v149h461q13 0 25.5 -6t22 -15.5t15.5 -22t6 -25.5v-299h109v481h-750v-747h959v-148h-1098 q-27 0 -47.5 20.5t-20.5 47.5zM588 506h112v47h-112v-47z" />
<glyph unicode="A" horiz-adv-x="1311" d="M-59 0l510 1229h409l512 -1229h-819v266h299l-197 471l-307 -737h-407z" />
<glyph unicode="B" d="M61 0v1229h902q49 0 85 -37q37 -37 37 -86v-369q0 -49 -37 -86q-36 -37 -85 -37q46 -2 84 -30q38 -27 38 -72v-389q0 -49 -37 -86q-36 -37 -85 -37h-902zM430 266h287v246h-287v-246zM430 717h287v246h-287v-246z" />
<glyph unicode="C" horiz-adv-x="1106" d="M61 123v983q0 49 37 86t86 37h901l-122 -266h-533v-697h655l-122 -266h-779q-49 0 -86 37t-37 86z" />
<glyph unicode="D" d="M61 0v1229h902q49 0 85 -37q37 -37 37 -86v-983q0 -49 -37 -86q-36 -37 -85 -37h-902zM430 266h287v697h-287v-697z" />
<glyph unicode="E" horiz-adv-x="1106" d="M61 0v1229h1024l-122 -266h-533v-246h533v-205h-533v-246h655l-122 -266h-902z" />
<glyph unicode="F" horiz-adv-x="1106" d="M61 0v1229h1024l-122 -266h-533v-246h533v-205h-533v-512h-369z" />
<glyph unicode="G" d="M61 123v983q0 49 37 86t86 37h901l-122 -266h-533v-697h287v246h-144v205h512v-717h-901q-49 0 -86 37t-37 86z" />
<glyph unicode="H" d="M61 0v1229h369v-512h287v512h368v-1229h-368v512h-287v-512h-369z" />
<glyph unicode="I" horiz-adv-x="492" d="M61 0v1229h369v-1229h-369z" />
<glyph unicode="J" horiz-adv-x="737" d="M61 266h246v963h369v-1106q0 -49 -37 -86t-86 -37h-369z" />
<glyph unicode="K" d="M61 0v1229h369v-422l225 422h430l-327 -615l327 -614h-430l-225 422v-422h-369z" />
<glyph unicode="L" horiz-adv-x="1106" d="M61 0v1229h369v-963h533l122 -266h-1024z" />
<glyph unicode="M" horiz-adv-x="1802" d="M61 0v1229h1557q49 0 86 -37t37 -86v-1106h-369v963h-287v-963h-368v963h-287v-963h-369z" />
<glyph unicode="N" d="M61 0v1229h902q49 0 85 -37q37 -37 37 -86v-1106h-368v963h-287v-963h-369z" />
<glyph unicode="O" d="M61 123v983q0 49 37 86t86 37h779q49 0 85 -37q37 -37 37 -86v-983q0 -49 -37 -86q-36 -37 -85 -37h-779q-49 0 -86 37t-37 86zM430 266h287v697h-287v-697z" />
<glyph unicode="P" d="M61 0v1229h902q49 0 85 -37q37 -37 37 -86v-553q0 -49 -37 -86q-36 -37 -85 -37h-533v-430h-369zM430 635h287v328h-287v-328z" />
<glyph unicode="Q" d="M61 123v983q0 49 37 86t86 37h779q49 0 85 -37q37 -37 37 -86v-840l123 -266h-1024q-49 0 -86 37t-37 86zM430 266h287v697h-287v-697z" />
<glyph unicode="R" d="M61 0v1229h902q49 0 85 -37q37 -37 37 -86v-471q0 -49 -37 -86q-36 -37 -85 -37h-72l235 -512h-327l-328 717h246v246h-287v-963h-369z" />
<glyph unicode="S" d="M61 266h656v246h-533q-49 0 -86 37t-37 86v471q0 49 37 86t86 37h901v-266h-655v-246h533q49 0 85 -37q37 -37 37 -86v-471q0 -49 -37 -86q-36 -37 -85 -37h-779z" />
<glyph unicode="T" d="M61 963v266h1024v-266h-327v-963h-369v963h-328z" />
<glyph unicode="U" d="M61 123v1106h369v-963h287v963h368v-1229h-901q-49 0 -86 37t-37 86z" />
<glyph unicode="V" horiz-adv-x="1311" d="M-59 1229h407l307 -737l308 737h409l-512 -1229h-409z" />
<glyph unicode="W" horiz-adv-x="1802" d="M61 123v1106h369v-963h287v963h368v-963h287v963h369v-1106q0 -49 -37 -86t-86 -37h-1434q-49 0 -86 37t-37 86z" />
<glyph unicode="X" horiz-adv-x="1352" d="M61 0l390 614l-390 615h451l164 -258l164 258h450l-389 -615l389 -614h-450l-164 258l-164 -258h-451z" />
<glyph unicode="Y" horiz-adv-x="1106" d="M-59 1229h448l164 -258l164 258h450l-430 -676v-553h-368v553z" />
<glyph unicode="Z" d="M61 0v266l553 697h-553v266h1024v-266l-553 -697h553v-266h-1024z" />
<glyph unicode="[" horiz-adv-x="594" d="M61 -100v1431q0 41 31 72t72 31h368v-103h-204v-1431h204v-103h-368q-41 0 -72 31t-31 72z" />
<glyph unicode="\" horiz-adv-x="903" d="M0 1434h307l596 -1637h-307z" />
<glyph unicode="]" horiz-adv-x="594" d="M61 -100h205v1431h-205v103h369q41 0 71 -31q31 -31 31 -72v-1431q0 -41 -31 -72q-30 -31 -71 -31h-369v103z" />
<glyph unicode="^" horiz-adv-x="901" d="M61 922l287 307h205l287 -307h-205l-184 196l-185 -196h-205z" />
<glyph unicode="_" horiz-adv-x="942" d="M0 0v266h942v-266h-942z" />
<glyph unicode="`" horiz-adv-x="532" d="M61 1434v204l410 -307z" />
<glyph unicode="a" horiz-adv-x="1065" d="M61 123v307q0 49 37 86t86 37h451v102h-574v267h820q49 0 86 -37t37 -86v-799h-820q-49 0 -86 37t-37 86zM430 266h205v82h-205v-82z" />
<glyph unicode="b" horiz-adv-x="1065" d="M61 0v1229h369v-307h451q49 0 86 -37t37 -86v-676q0 -49 -37 -86t-86 -37h-820zM430 266h205v389h-205v-389z" />
<glyph unicode="c" horiz-adv-x="983" d="M20 123v676q0 49 37 86t86 37h820l-123 -267h-451v-389h574l-123 -266h-697q-49 0 -86 37t-37 86z" />
<glyph unicode="d" horiz-adv-x="1065" d="M61 123v676q0 49 37 86t86 37h451v307h369v-1229h-820q-49 0 -86 37t-37 86zM430 266h205v389h-205v-389z" />
<glyph unicode="e" horiz-adv-x="1065" d="M61 123v676q0 49 37 86t86 37h697q49 0 86 -37t37 -86v-328q0 -49 -37 -86t-86 -37h-451v-82h574l-123 -266h-697q-49 0 -86 37t-37 86zM430 553h205v102h-205v-102z" />
<glyph unicode="f" horiz-adv-x="737" d="M0 512v205h102v389q0 49 37 86t86 37h574l-123 -266h-205v-246h205v-205h-205v-512h-369v512h-102z" />
<glyph unicode="g" horiz-adv-x="1065" d="M61 123v676q0 49 37 86t86 37h820v-1207q0 -49 -37 -86t-86 -37h-697l-123 267h574v141h-451q-49 0 -86 37t-37 86zM430 266h205v389h-205v-389z" />
<glyph unicode="h" horiz-adv-x="1065" d="M61 0v1229h369v-307h451q49 0 86 -37t37 -86v-799h-369v717h-205v-717h-369z" />
<glyph unicode="i" horiz-adv-x="492" d="M61 0v922h369v-922h-369zM61 1024v205h369v-205h-369z" />
<glyph unicode="j" horiz-adv-x="492" d="M-182 -141h243v1063h369v-1207q0 -49 -37 -86t-86 -37h-366zM61 1024v205h369v-205h-369z" />
<glyph unicode="k" d="M61 0v1229h369v-647l215 340h440l-290 -461l290 -461h-440l-215 340v-340h-369z" />
<glyph unicode="l" horiz-adv-x="492" d="M61 0v1229h369v-1229h-369z" />
<glyph unicode="m" horiz-adv-x="1638" d="M61 0v922h1393q49 0 86 -37t37 -86v-799h-369v655h-204v-655h-369v655h-205v-655h-369z" />
<glyph unicode="n" horiz-adv-x="1065" d="M61 0v922h820q49 0 86 -37t37 -86v-799h-369v655h-205v-655h-369z" />
<glyph unicode="o" horiz-adv-x="1065" d="M61 123v676q0 49 37 86t86 37h697q49 0 86 -37t37 -86v-676q0 -49 -37 -86t-86 -37h-697q-49 0 -86 37t-37 86zM430 266h205v389h-205v-389z" />
<glyph unicode="p" horiz-adv-x="1065" d="M61 -408v1330h820q49 0 86 -37t37 -86v-676q0 -49 -37 -86t-86 -37h-451v-408h-369zM430 266h205v389h-205v-389z" />
<glyph unicode="q" horiz-adv-x="1065" d="M61 123v676q0 49 37 86t86 37h820v-1330h-369v408h-451q-49 0 -86 37t-37 86zM430 266h205v389h-205v-389z" />
<glyph unicode="r" horiz-adv-x="901" d="M61 0v799q0 49 37 86t86 37h717l-123 -267h-348v-655h-369z" />
<glyph unicode="s" horiz-adv-x="1065" d="M61 266h574v82h-451q-49 0 -86 37t-37 86v328q0 49 37 86t86 37h820v-267h-574v-102h451q49 0 86 -37t37 -86v-307q0 -49 -37 -86t-86 -37h-697z" />
<glyph unicode="t" horiz-adv-x="799" d="M0 717v205h102v307h369v-307h205v-205h-205v-451h205l123 -266h-574q-49 0 -86 37t-37 86v594h-102z" />
<glyph unicode="u" horiz-adv-x="1065" d="M61 123v799h369v-656h205v656h369v-922h-820q-49 0 -86 37t-37 86z" />
<glyph unicode="v" horiz-adv-x="1055" d="M-59 922h405l180 -430l179 430h411l-385 -922h-409z" />
<glyph unicode="w" horiz-adv-x="1638" d="M61 123v799h369v-656h205v656h369v-656h204v656h369v-799q0 -49 -37 -86t-86 -37h-1270q-49 0 -86 37t-37 86z" />
<glyph unicode="x" d="M61 0l308 461l-308 461h410l102 -154l103 154h409l-307 -461l307 -461h-409l-103 154l-102 -154h-410z" />
<glyph unicode="y" horiz-adv-x="1065" d="M61 123v799h369v-656h205v656h369v-1207q0 -49 -37 -86t-86 -37h-697l-123 267h574v141h-451q-49 0 -86 37t-37 86z" />
<glyph unicode="z" horiz-adv-x="1065" d="M61 0v266l431 389h-431v267h943v-267l-431 -389h431v-266h-943z" />
<glyph unicode="{" horiz-adv-x="696" d="M61 563v103q40 0 72 30q31 31 31 72v563q0 40 30 72q31 31 72 31h369v-103h-205v-614q0 -41 -31 -72q-30 -31 -71 -31q41 0 71 -31q31 -30 31 -71v-612h205v-103h-369q-41 0 -72 31q-30 31 -30 72v561q0 41 -31 71q-31 31 -72 31z" />
<glyph unicode="|" horiz-adv-x="389" d="M61 -203v1637h267v-1637h-267z" />
<glyph unicode="}" horiz-adv-x="696" d="M61 -100h205v612q0 41 31 71q31 31 72 31q-41 0 -72 31t-31 72v614h-205v103h369q41 0 71 -31q31 -31 31 -72v-563q0 -41 31 -72q31 -30 72 -30v-103q-41 0 -72 -31q-31 -30 -31 -71v-561q0 -41 -31 -72q-30 -31 -71 -31h-369v103z" />
<glyph unicode="~" horiz-adv-x="805" d="M61 954v209q76 66 172 66q59 0 170 -41q112 -41 170 -41q82 0 170 82v-205q-91 -70 -176 -70q-58 0 -167 41q-108 41 -167 41q-81 0 -172 -82z" />
<glyph unicode="&#xa1;" horiz-adv-x="389" d="M61 0v860h267v-860h-267zM61 963v266h267v-266h-267z" />
<glyph unicode="&#xa2;" d="M61 328v573q0 49 37 86t86 37h256v205h267v-205h378l-122 -266h-533v-287h655l-122 -266h-256v-205h-267v205h-256q-49 0 -86 37t-37 86z" />
<glyph unicode="&#xa5;" horiz-adv-x="1106" d="M-59 1229h448l164 -258l164 258h450l-417 -656h356v-163h-369v-41h369v-164h-369v-205h-368v205h-369v164h369v41h-369v163h356z" />
<glyph unicode="&#xa8;" horiz-adv-x="635" d="M61 1434q0 41 31 71q31 31 72 31t71 -31q31 -30 31 -71t-31 -72q-30 -31 -71 -31t-72 31t-31 72zM369 1434q0 41 30 71q31 31 72 31t71 -31q31 -30 31 -71t-31 -72q-30 -31 -71 -31t-72 31q-30 31 -30 72z" />
<glyph unicode="&#xa9;" horiz-adv-x="936" d="M61 254v723q0 45 45 45h723q45 0 45 -45v-723q0 -45 -45 -45h-723q-45 0 -45 45zM199 307h538v615h-538v-615zM276 430v369q0 47 46 47h337l-45 -101h-200v-260h245l-45 -100h-292q-46 0 -46 45z" />
<glyph unicode="&#xad;" horiz-adv-x="942" d="M61 481v267h820v-267h-820z" />
<glyph unicode="&#xae;" horiz-adv-x="936" d="M61 254v723q0 45 45 45h723q45 0 45 -45v-723q0 -45 -45 -45h-723q-45 0 -45 45zM199 307h538v615h-538v-615zM276 385v461h338q45 0 45 -47v-176q0 -45 -73 -45l90 -193h-123l-123 268h92v92h-108v-360h-138z" />
<glyph unicode="&#xb0;" horiz-adv-x="430" d="M61 1075q0 62 46 108t108 46q61 0 107 -46q47 -47 47 -108q0 -60 -47 -107q-46 -46 -107 -46q-62 0 -108 46t-46 107zM143 1075q0 -14 6 -27t15.5 -22.5t22.5 -15.5t28 -6t28 6t22.5 15.5t15.5 22.5t6 27q0 29 -21.5 50.5t-50.5 21.5t-50.5 -21.5t-21.5 -50.5z" />
<glyph unicode="&#xb1;" horiz-adv-x="942" d="M0 0v266h942v-266h-942zM61 686v266h277v277h266v-277h277v-266h-277v-276h-266v276h-277z" />
<glyph unicode="&#xb4;" horiz-adv-x="532" d="M61 1331l410 307v-204z" />
<glyph unicode="&#xb6;" d="M61 553v553q0 49 37 86t86 37h901v-266h-102v-963h-205v963h-246v-963h-204v430h-144q-49 0 -86 37t-37 86z" />
<glyph unicode="&#xb7;" horiz-adv-x="389" d="M61 481v267h267v-267h-267z" />
<glyph unicode="&#xbc;" horiz-adv-x="1389" d="M61 1096l62 133h225v-615h-184v482h-103zM143 0l596 1229h281l-596 -1229h-281zM815 154v460h184v-358h144v154h184v-410h-184v154h-328z" />
<glyph unicode="&#xbd;" horiz-adv-x="1409" d="M61 1096l62 133h225v-615h-184v482h-103zM143 0l596 1229h281l-596 -1229h-281zM836 61v236q0 25 18 43t43 18h266v123h-327v133h450q25 0 43.5 -18t18.5 -43v-236q0 -24 -18.5 -42.5t-43.5 -18.5h-266v-123h328v-133h-451q-25 0 -43 18.5t-18 42.5z" />
<glyph unicode="&#xbe;" horiz-adv-x="1634" d="M61 614v134h328v122h-225v103h225v123h-328v133h451q25 0 43 -18.5t18 -43.5v-184q0 -25 -18 -43t-43 -18q61 -1 61 -52v-194q0 -25 -18 -43.5t-43 -18.5h-451zM389 0l596 1229h281l-596 -1229h-281zM1061 154v460h184v-358h144v154h184v-410h-184v154h-328z" />
<glyph unicode="&#xbf;" horiz-adv-x="1065" d="M61 123v471q0 49 37 86t86 37h553v143h267v-225q0 -49 -37 -86t-86 -37h-553v-307h409v102h267v-184q0 -49 -37 -86t-86 -37h-697q-49 0 -86 37t-37 86zM737 963v266h267v-266h-267z" />
<glyph unicode="&#xc0;" horiz-adv-x="1311" d="M-59 0l510 1229h409l512 -1229h-819v266h299l-197 471l-307 -737h-407zM246 1434v204l409 -307z" />
<glyph unicode="&#xc1;" horiz-adv-x="1311" d="M-59 0l510 1229h409l512 -1229h-819v266h299l-197 471l-307 -737h-407zM655 1331l410 307v-204z" />
<glyph unicode="&#xc2;" horiz-adv-x="1311" d="M-59 0l510 1229h409l512 -1229h-819v266h299l-197 471l-307 -737h-407zM266 1331l287 307h205l286 -307h-204l-185 197l-184 -197h-205z" />
<glyph unicode="&#xc3;" horiz-adv-x="1311" d="M-59 0l510 1229h409l512 -1229h-819v266h299l-197 471l-307 -737h-407zM315 1331v209q76 66 172 66q59 0 170 -41q112 -41 170 -41q82 0 170 82v-205q-91 -70 -176 -70q-58 0 -167 41q-108 41 -167 41q-81 0 -172 -82z" />
<glyph unicode="&#xc4;" horiz-adv-x="1311" d="M-59 0l510 1229h409l512 -1229h-819v266h299l-197 471l-307 -737h-407zM399 1434q0 41 31 71q31 31 72 31t71 -31q31 -30 31 -71t-31 -72q-30 -31 -71 -31t-72 31t-31 72zM707 1434q0 41 30 71q31 31 72 31t71 -31q31 -30 31 -71t-31 -72q-30 -31 -71 -31t-72 31 q-30 31 -30 72z" />
<glyph unicode="&#xc5;" horiz-adv-x="1311" d="M-59 0l510 1229h409l512 -1229h-819v266h299l-197 471l-307 -737h-407zM502 1485q0 61 46 107t107 46q62 0 108 -46t46 -107q0 -62 -46 -108t-108 -46q-61 0 -107 46t-46 108zM584 1485q0 -15 6 -28t15.5 -22.5t22.5 -15.5t27 -6q29 0 50.5 21.5t21.5 50.5q0 14 -6 27 t-15.5 22.5t-22.5 15.5t-28 6q-28 0 -49.5 -21.5t-21.5 -49.5z" />
<glyph unicode="&#xc6;" horiz-adv-x="2048" d="M-59 0l1022 1229h1024l-123 -266h-533v-246h533v-205h-533v-246h656l-123 -266h-1200v266h299v471l-615 -737h-407z" />
<glyph unicode="&#xc8;" d="M61 0v1229h1024l-122 -266h-533v-246h533v-205h-533v-246h655l-122 -266h-902zM164 1434v204l409 -307z" />
<glyph unicode="&#xc9;" d="M61 0v1229h1024l-122 -266h-533v-246h533v-205h-533v-246h655l-122 -266h-902zM573 1331l410 307v-204z" />
<glyph unicode="&#xca;" d="M61 0v1229h1024l-122 -266h-533v-246h533v-205h-533v-246h655l-122 -266h-902zM184 1331l287 307h205l287 -307h-205l-185 197l-184 -197h-205z" />
<glyph unicode="&#xcb;" d="M61 0v1229h1024l-122 -266h-533v-246h533v-205h-533v-246h655l-122 -266h-902zM317 1434q0 41 31 71q31 31 72 31t71 -31q31 -30 31 -71t-31 -72q-30 -31 -71 -31t-72 31t-31 72zM625 1434q0 41 30 71q31 31 72 31t71 -31q31 -30 31 -71t-31 -72q-30 -31 -71 -31t-72 31 q-30 31 -30 72z" />
<glyph unicode="&#xcc;" horiz-adv-x="492" d="M-162 1434v204l408 -307zM61 0v1229h369v-1229h-369z" />
<glyph unicode="&#xcd;" horiz-adv-x="492" d="M61 0v1229h369v-1229h-369zM246 1331l409 307v-204z" />
<glyph unicode="&#xce;" horiz-adv-x="492" d="M-141 1331l284 307h205l287 -307h-205l-184 197l-185 -197h-202zM61 0v1229h369v-1229h-369z" />
<glyph unicode="&#xcf;" horiz-adv-x="492" d="M-8 1434q0 40 29 71q30 31 71 31t72 -31q31 -30 31 -71t-31 -72t-72 -31t-71 31q-29 32 -29 72zM61 0v1229h369v-1229h-369zM297 1434q0 41 30 71q31 31 72 31t72 -31q31 -30 31 -71t-31 -72t-72 -31t-72 31q-30 31 -30 72z" />
<glyph unicode="&#xd1;" d="M61 0v1229h902q49 0 85 -37q37 -37 37 -86v-1106h-368v963h-287v-963h-369zM233 1331v209q76 66 173 66q58 0 169 -41q112 -41 170 -41q82 0 170 82v-205q-91 -70 -176 -70q-58 0 -167 41q-108 41 -166 41q-82 0 -173 -82z" />
<glyph unicode="&#xd2;" d="M61 123v983q0 49 37 86t86 37h779q49 0 85 -37q37 -37 37 -86v-983q0 -49 -37 -86q-36 -37 -85 -37h-779q-49 0 -86 37t-37 86zM164 1434v204l409 -307zM430 266h287v697h-287v-697z" />
<glyph unicode="&#xd3;" d="M61 123v983q0 49 37 86t86 37h779q49 0 85 -37q37 -37 37 -86v-983q0 -49 -37 -86q-36 -37 -85 -37h-779q-49 0 -86 37t-37 86zM430 266h287v697h-287v-697zM573 1331l410 307v-204z" />
<glyph unicode="&#xd4;" d="M61 123v983q0 49 37 86t86 37h779q49 0 85 -37q37 -37 37 -86v-983q0 -49 -37 -86q-36 -37 -85 -37h-779q-49 0 -86 37t-37 86zM184 1331l287 307h205l287 -307h-205l-185 197l-184 -197h-205zM430 266h287v697h-287v-697z" />
<glyph unicode="&#xd5;" d="M61 123v983q0 49 37 86t86 37h779q49 0 85 -37q37 -37 37 -86v-983q0 -49 -37 -86q-36 -37 -85 -37h-779q-49 0 -86 37t-37 86zM233 1331v209q76 66 173 66q58 0 169 -41q112 -41 170 -41q82 0 170 82v-205q-91 -70 -176 -70q-58 0 -167 41q-108 41 -166 41 q-82 0 -173 -82zM430 266h287v697h-287v-697z" />
<glyph unicode="&#xd6;" d="M61 123v983q0 49 37 86t86 37h779q49 0 85 -37q37 -37 37 -86v-983q0 -49 -37 -86q-36 -37 -85 -37h-779q-49 0 -86 37t-37 86zM317 1434q0 41 31 71q31 31 72 31t71 -31q31 -30 31 -71t-31 -72q-30 -31 -71 -31t-72 31t-31 72zM430 266h287v697h-287v-697zM625 1434 q0 41 30 71q31 31 72 31t71 -31q31 -30 31 -71t-31 -72q-30 -31 -71 -31t-72 31q-30 31 -30 72z" />
<glyph unicode="&#xd7;" horiz-adv-x="942" d="M88 420l195 194l-195 195l188 188l195 -194l195 194l188 -188l-195 -195l195 -194l-188 -189l-195 195l-195 -195z" />
<glyph unicode="&#xd8;" d="M0 31l63 78q-2 10 -2 14v983q0 49 37 86t86 37h789l43 51l131 -102l-62 -76v-979q0 -49 -37 -86q-36 -37 -85 -37h-775l-57 -70zM430 266h287v383l-287 -352v-31zM430 559l287 352v52h-287v-404z" />
<glyph unicode="&#xd9;" d="M61 123v1106h369v-963h287v963h368v-1229h-901q-49 0 -86 37t-37 86zM164 1434v204l409 -307z" />
<glyph unicode="&#xda;" d="M61 123v1106h369v-963h287v963h368v-1229h-901q-49 0 -86 37t-37 86zM573 1331l410 307v-204z" />
<glyph unicode="&#xdb;" d="M61 123v1106h369v-963h287v963h368v-1229h-901q-49 0 -86 37t-37 86zM184 1331l287 307h205l287 -307h-205l-185 197l-184 -197h-205z" />
<glyph unicode="&#xdc;" d="M61 123v1106h369v-963h287v963h368v-1229h-901q-49 0 -86 37t-37 86zM317 1434q0 41 31 71q31 31 72 31t71 -31q31 -30 31 -71t-31 -72q-30 -31 -71 -31t-72 31t-31 72zM625 1434q0 41 30 71q31 31 72 31t71 -31q31 -30 31 -71t-31 -72q-30 -31 -71 -31t-72 31 q-30 31 -30 72z" />
<glyph unicode="&#xdd;" horiz-adv-x="1106" d="M-59 1229h448l164 -258l164 258h450l-430 -676v-553h-368v553zM553 1331l410 307v-204z" />
<glyph unicode="&#xe0;" horiz-adv-x="1065" d="M61 123v307q0 49 37 86t86 37h451v102h-574v267h820q49 0 86 -37t37 -86v-799h-820q-49 0 -86 37t-37 86zM123 1126v205l409 -307zM430 266h205v82h-205v-82z" />
<glyph unicode="&#xe1;" horiz-adv-x="1065" d="M61 123v307q0 49 37 86t86 37h451v102h-574v267h820q49 0 86 -37t37 -86v-799h-820q-49 0 -86 37t-37 86zM430 266h205v82h-205v-82zM532 1024l410 307v-205z" />
<glyph unicode="&#xe2;" horiz-adv-x="1065" d="M61 123v307q0 49 37 86t86 37h451v102h-574v267h820q49 0 86 -37t37 -86v-799h-820q-49 0 -86 37t-37 86zM143 1024l287 307h205l287 -307h-205l-185 197l-184 -197h-205zM430 266h205v82h-205v-82z" />
<glyph unicode="&#xe3;" horiz-adv-x="1065" d="M61 123v307q0 49 37 86t86 37h451v102h-574v267h820q49 0 86 -37t37 -86v-799h-820q-49 0 -86 37t-37 86zM193 1024v209q76 65 172 65q58 0 169 -41q110 -40 171 -40q80 0 169 81v-204q-91 -70 -176 -70q-58 0 -167 41q-108 41 -166 41q-83 0 -172 -82zM430 266h205v82 h-205v-82z" />
<glyph unicode="&#xe4;" horiz-adv-x="1065" d="M61 123v307q0 49 37 86t86 37h451v102h-574v267h820q49 0 86 -37t37 -86v-799h-820q-49 0 -86 37t-37 86zM276 1126q0 41 31 72t72 31t71 -31q31 -31 31 -72t-31 -72q-30 -30 -71 -30t-72 30q-31 31 -31 72zM430 266h205v82h-205v-82zM584 1126q0 40 30 72q31 31 72 31 t71 -31q31 -31 31 -72t-31 -72q-30 -30 -71 -30t-72 30q-30 31 -30 72z" />
<glyph unicode="&#xe5;" horiz-adv-x="1065" d="M61 123v307q0 49 37 86t86 37h451v102h-574v267h820q49 0 86 -37t37 -86v-799h-820q-49 0 -86 37t-37 86zM379 1178q0 61 46 107t107 46q62 0 108 -46t46 -107q0 -62 -46 -108t-108 -46q-61 0 -107 46t-46 108zM430 266h205v82h-205v-82zM461 1178q0 -15 6 -28 t15.5 -22.5t22.5 -15.5t27 -6q29 0 50.5 21.5t21.5 50.5q0 14 -6 27t-15.5 22.5t-22.5 15.5t-28 6q-28 0 -49.5 -21.5t-21.5 -49.5z" />
<glyph unicode="&#xe6;" horiz-adv-x="2007" d="M61 123v307q0 49 37 86t86 37h451v102h-574v267h820q49 0 86 -37t37 -86q0 48 36 86q37 37 86 37h697q49 0 86 -37t37 -86v-328q0 -49 -37 -86t-86 -37h-451v-82h574l-123 -266h-697q-49 0 -86 37q-36 37 -36 86v-123h-820q-49 0 -86 37t-37 86zM430 266h205v82h-205v-82 zM1372 553h205v102h-205v-102z" />
<glyph unicode="&#xe8;" horiz-adv-x="1065" d="M61 123v676q0 49 37 86t86 37h697q49 0 86 -37t37 -86v-328q0 -49 -37 -86t-86 -37h-451v-82h574l-123 -266h-697q-49 0 -86 37t-37 86zM123 1126v205l409 -307zM430 553h205v102h-205v-102z" />
<glyph unicode="&#xe9;" horiz-adv-x="1065" d="M61 123v676q0 49 37 86t86 37h697q49 0 86 -37t37 -86v-328q0 -49 -37 -86t-86 -37h-451v-82h574l-123 -266h-697q-49 0 -86 37t-37 86zM430 553h205v102h-205v-102zM532 1024l410 307v-205z" />
<glyph unicode="&#xea;" horiz-adv-x="1065" d="M61 123v676q0 49 37 86t86 37h697q49 0 86 -37t37 -86v-328q0 -49 -37 -86t-86 -37h-451v-82h574l-123 -266h-697q-49 0 -86 37t-37 86zM143 1024l287 307h205l287 -307h-205l-185 197l-184 -197h-205zM430 553h205v102h-205v-102z" />
<glyph unicode="&#xeb;" horiz-adv-x="1065" d="M61 123v676q0 49 37 86t86 37h697q49 0 86 -37t37 -86v-328q0 -49 -37 -86t-86 -37h-451v-82h574l-123 -266h-697q-49 0 -86 37t-37 86zM276 1126q0 41 31 72t72 31t71 -31q31 -31 31 -72t-31 -72q-30 -30 -71 -30t-72 30q-31 31 -31 72zM430 553h205v102h-205v-102z M584 1126q0 40 30 72q31 31 72 31t71 -31q31 -31 31 -72t-31 -72q-30 -30 -71 -30t-72 30q-30 31 -30 72z" />
<glyph unicode="&#xec;" horiz-adv-x="492" d="M-162 1126v205l408 -307zM61 0v922h369v-922h-369z" />
<glyph unicode="&#xed;" horiz-adv-x="492" d="M61 0v922h369v-922h-369zM246 1024l409 307v-205z" />
<glyph unicode="&#xee;" horiz-adv-x="492" d="M-141 1024l284 307h205l287 -307h-205l-184 197l-185 -197h-202zM61 0v922h369v-922h-369z" />
<glyph unicode="&#xef;" horiz-adv-x="492" d="M-8 1126q0 40 29 72q30 31 71 31t72 -31t31 -72t-31 -72q-32 -30 -72 -30q-41 0 -71 30q-29 32 -29 72zM61 0v922h369v-922h-369zM297 1126q0 40 30 72q31 31 72 31t72 -31t31 -72t-31 -72q-32 -30 -72 -30q-41 0 -72 30q-30 31 -30 72z" />
<glyph unicode="&#xf1;" horiz-adv-x="1065" d="M61 0v922h820q49 0 86 -37t37 -86v-799h-369v655h-205v-655h-369zM193 1024v209q76 65 172 65q58 0 169 -41q110 -40 171 -40q80 0 169 81v-204q-91 -70 -176 -70q-58 0 -167 41q-108 41 -166 41q-83 0 -172 -82z" />
<glyph unicode="&#xf2;" horiz-adv-x="1065" d="M61 123v676q0 49 37 86t86 37h697q49 0 86 -37t37 -86v-676q0 -49 -37 -86t-86 -37h-697q-49 0 -86 37t-37 86zM123 1126v205l409 -307zM430 266h205v389h-205v-389z" />
<glyph unicode="&#xf3;" horiz-adv-x="1065" d="M61 123v676q0 49 37 86t86 37h697q49 0 86 -37t37 -86v-676q0 -49 -37 -86t-86 -37h-697q-49 0 -86 37t-37 86zM430 266h205v389h-205v-389zM532 1024l410 307v-205z" />
<glyph unicode="&#xf4;" horiz-adv-x="1065" d="M61 123v676q0 49 37 86t86 37h697q49 0 86 -37t37 -86v-676q0 -49 -37 -86t-86 -37h-697q-49 0 -86 37t-37 86zM143 1024l287 307h205l287 -307h-205l-185 197l-184 -197h-205zM430 266h205v389h-205v-389z" />
<glyph unicode="&#xf5;" horiz-adv-x="1065" d="M61 123v676q0 49 37 86t86 37h697q49 0 86 -37t37 -86v-676q0 -49 -37 -86t-86 -37h-697q-49 0 -86 37t-37 86zM193 1024v209q76 65 172 65q58 0 169 -41q110 -40 171 -40q80 0 169 81v-204q-91 -70 -176 -70q-58 0 -167 41q-108 41 -166 41q-83 0 -172 -82zM430 266h205 v389h-205v-389z" />
<glyph unicode="&#xf6;" horiz-adv-x="1065" d="M61 123v676q0 49 37 86t86 37h697q49 0 86 -37t37 -86v-676q0 -49 -37 -86t-86 -37h-697q-49 0 -86 37t-37 86zM276 1126q0 41 31 72t72 31t71 -31q31 -31 31 -72t-31 -72q-30 -30 -71 -30t-72 30q-31 31 -31 72zM430 266h205v389h-205v-389zM584 1126q0 40 30 72 q31 31 72 31t71 -31q31 -31 31 -72t-31 -72q-30 -30 -71 -30t-72 30q-30 31 -30 72z" />
<glyph unicode="&#xf7;" horiz-adv-x="942" d="M61 481v267h820v-267h-820zM338 287q0 53 40 93t93 40t93 -40t40 -93q0 -54 -40 -94q-41 -39 -93 -39q-53 0 -93 39q-40 40 -40 94zM338 942q0 53 40 93t93 40t93 -40t40 -93t-40 -93t-93 -40t-93 40t-40 93z" />
<glyph unicode="&#xf8;" horiz-adv-x="1065" d="M10 41l56 53q-5 17 -5 29v676q0 49 37 86t86 37h697q20 0 41 -9l51 50l82 -82l-56 -54q5 -15 5 -28v-676q0 -49 -37 -86t-86 -37h-697q-19 0 -41 8l-51 -47zM430 266h205v213l-205 -196v-17zM430 442l205 197v16h-205v-213z" />
<glyph unicode="&#xf9;" horiz-adv-x="1065" d="M61 123v799h369v-656h205v656h369v-922h-820q-49 0 -86 37t-37 86zM123 1126v205l409 -307z" />
<glyph unicode="&#xfa;" horiz-adv-x="1065" d="M61 123v799h369v-656h205v656h369v-922h-820q-49 0 -86 37t-37 86zM532 1024l410 307v-205z" />
<glyph unicode="&#xfb;" horiz-adv-x="1065" d="M61 123v799h369v-656h205v656h369v-922h-820q-49 0 -86 37t-37 86zM143 1024l287 307h205l287 -307h-205l-185 197l-184 -197h-205z" />
<glyph unicode="&#xfc;" horiz-adv-x="1065" d="M61 123v799h369v-656h205v656h369v-922h-820q-49 0 -86 37t-37 86zM276 1126q0 41 31 72t72 31t71 -31q31 -31 31 -72t-31 -72q-30 -30 -71 -30t-72 30q-31 31 -31 72zM584 1126q0 40 30 72q31 31 72 31t71 -31q31 -31 31 -72t-31 -72q-30 -30 -71 -30t-72 30 q-30 31 -30 72z" />
<glyph unicode="&#xfd;" horiz-adv-x="1065" d="M61 123v799h369v-656h205v656h369v-1207q0 -49 -37 -86t-86 -37h-697l-123 267h574v141h-451q-49 0 -86 37t-37 86zM532 1024l410 307v-205z" />
<glyph unicode="&#xff;" horiz-adv-x="1065" d="M61 123v799h369v-656h205v656h369v-1207q0 -49 -37 -86t-86 -37h-697l-123 267h574v141h-451q-49 0 -86 37t-37 86zM276 1126q0 41 31 72t72 31t71 -31q31 -31 31 -72t-31 -72q-30 -30 -71 -30t-72 30q-31 31 -31 72zM584 1126q0 40 30 72q31 31 72 31t71 -31 q31 -31 31 -72t-31 -72q-30 -30 -71 -30t-72 30q-30 31 -30 72z" />
<glyph unicode="&#x152;" horiz-adv-x="2171" d="M61 123v983q0 49 37 86t86 37h779q49 0 85 -37q37 -37 37 -86v123h1024l-122 -266h-533v-246h533v-205h-533v-246h655l-122 -266h-902v123q0 -49 -37 -86q-36 -37 -85 -37h-779q-49 0 -86 37t-37 86zM430 266h287v697h-287v-697z" />
<glyph unicode="&#x153;" horiz-adv-x="2007" d="M61 123v676q0 49 37 86t86 37h697q49 0 86 -37t37 -86q0 48 36 86q37 37 86 37h697q49 0 86 -37t37 -86v-328q0 -49 -37 -86t-86 -37h-451v-82h574l-123 -266h-697q-49 0 -86 37q-36 37 -36 86q0 -49 -37 -86t-86 -37h-697q-49 0 -86 37t-37 86zM430 266h205v389h-205 v-389zM1372 553h205v102h-205v-102z" />
<glyph unicode="&#x178;" horiz-adv-x="1106" d="M-59 1229h448l164 -258l164 258h450l-430 -676v-553h-368v553zM297 1434q0 41 30 71q31 31 72 31t72 -31q31 -30 31 -71t-31 -72t-72 -31t-72 31q-30 31 -30 72zM604 1434q0 41 31 71q31 31 72 31t71 -31q31 -30 31 -71t-31 -72q-30 -31 -71 -31t-72 31t-31 72z" />
<glyph unicode="&#x2c6;" horiz-adv-x="901" d="M61 1331l287 307h205l287 -307h-205l-184 197l-185 -197h-205z" />
<glyph unicode="&#x2dc;" horiz-adv-x="805" d="M61 1331v209q76 66 172 66q59 0 170 -41q112 -41 170 -41q82 0 170 82v-205q-91 -70 -176 -70q-58 0 -167 41q-108 41 -167 41q-81 0 -172 -82z" />
<glyph unicode="&#x2000;" horiz-adv-x="819" />
<glyph unicode="&#x2001;" horiz-adv-x="1638" />
<glyph unicode="&#x2002;" horiz-adv-x="819" />
<glyph unicode="&#x2003;" horiz-adv-x="1638" />
<glyph unicode="&#x2004;" horiz-adv-x="546" />
<glyph unicode="&#x2005;" horiz-adv-x="409" />
<glyph unicode="&#x2006;" horiz-adv-x="273" />
<glyph unicode="&#x2007;" horiz-adv-x="273" />
<glyph unicode="&#x2008;" horiz-adv-x="204" />
<glyph unicode="&#x2009;" horiz-adv-x="327" />
<glyph unicode="&#x200a;" horiz-adv-x="91" />
<glyph unicode="&#x2010;" horiz-adv-x="942" d="M61 481v267h820v-267h-820z" />
<glyph unicode="&#x2011;" horiz-adv-x="942" d="M61 481v267h820v-267h-820z" />
<glyph unicode="&#x2012;" horiz-adv-x="942" d="M61 481v267h820v-267h-820z" />
<glyph unicode="&#x2013;" horiz-adv-x="1146" d="M61 481v267h1024v-267h-1024z" />
<glyph unicode="&#x2014;" horiz-adv-x="2170" d="M61 481v267h2048v-267h-2048z" />
<glyph unicode="&#x2018;" horiz-adv-x="492" d="M61 758l103 471h266l-102 -471h-267z" />
<glyph unicode="&#x2019;" horiz-adv-x="492" d="M61 758l103 471h266l-102 -471h-267z" />
<glyph unicode="&#x201a;" horiz-adv-x="328" d="M-39 -203l100 408h205l-102 -408h-203z" />
<glyph unicode="&#x201c;" horiz-adv-x="819" d="M61 758l103 471h266l-102 -471h-267zM389 758l103 471h266l-103 -471h-266z" />
<glyph unicode="&#x201d;" horiz-adv-x="819" d="M61 758l103 471h266l-102 -471h-267zM389 758l103 471h266l-103 -471h-266z" />
<glyph unicode="&#x201e;" horiz-adv-x="819" d="M61 -203l103 469h266l-102 -469h-267zM389 -203l103 469h266l-103 -469h-266z" />
<glyph unicode="&#x2022;" horiz-adv-x="737" d="M61 614q0 127 90 217q91 91 218 91t217 -91q90 -90 90 -217t-90 -217t-217 -90t-218 90q-90 90 -90 217z" />
<glyph unicode="&#x2026;" horiz-adv-x="860" d="M61 0v205h205v-205h-205zM328 0v205h204v-205h-204zM594 0v205h205v-205h-205z" />
<glyph unicode="&#x202f;" horiz-adv-x="327" />
<glyph unicode="&#x205f;" horiz-adv-x="409" />
<glyph unicode="&#x2122;" horiz-adv-x="1167" d="M61 745v101h385v-101h-122v-360h-140v360h-123zM477 385v461h584q45 0 45 -47v-414h-137v360h-109v-360h-137v360h-109v-360h-137z" />
<glyph unicode="&#x25fc;" horiz-adv-x="920" d="M0 0v920h920v-920h-920z" />
</font>
</defs>
</svg>
